<?xml version="1.0" encoding="UTF-8"?>
<svg width="1em" height="1em" fill="none" stroke="currentColor" stroke-linecap="round" stroke-linejoin="round" version="1.1" viewBox="0 0 24 24" xml:space="preserve" xmlns="http://www.w3.org/2000/svg"><path d="m5.1154 15.148h-0.98351a1.967 1.967 0 0 1-1.967-1.967v-9.8351a1.967 1.967 0 0 1 1.967-1.967h15.736a1.967 1.967 0 0 1 1.967 1.967v9.8351a1.967 1.967 0 0 1-1.967 1.967h-0.98352" stroke-width="1.967"/><g transform="matrix(.98351 0 0 .98351 .19782 2.3627)" fill="none" stroke="currentColor" stroke-linecap="round" stroke-linejoin="round" stroke-width="2"><path d="m20 21v-2a4 4 0 0 0-4-4h-8a4 4 0 0 0-4 4v2"/><circle cx="12" cy="7" r="4"/></g></svg>
